# xmcd
#
# Track frame offsets:
#	150
#	16070
#	31346
#	45899
#	61934
#	78446
#	94649
#	112666
#	127776
#	143676
#	164355
#	177905
#	193490
#	209576
#	229831
#	251734
#	270459
#	294009
#	313766
#
# Disc length: 4421 seconds
#
# Revision: 2
# Processed by: cddbd v1.4PL0 Copyright (c) Steve Scherf et al.
# Submitted via: audiograbber 1.80.04
#
DISCID=f6114313
DTITLE=Mumiy Troll' - Zvyozdnaya seriya 2
DYEAR=2001
DGENRE=Pop
TTITLE0=Malysh
TTITLE1=Bez obmana
TTITLE2=Lojis', podpolkovnik!
TTITLE3=Posidelki - poglyadelki
TTITLE4=Severnyy polyus
TTITLE5=Shamamany
TTITLE6=Maslo
TTITLE7=Ranetka
TTITLE8=Ne zvezda
TTITLE9=Mal'tchik - soldat
TTITLE10=Novaya luna aprelya
TTITLE11=Bludlivye koty
TTITLE12=Slutchaynosti
TTITLE13=Vospitannik upavshey zvezdy
TTITLE14=Emu ne vzyat' tebya
TTITLE15=Moya pevitsa
TTITLE16=Daleko
TTITLE17=Vetcher
TTITLE18=Ne otchen'
EXTD=
EXTT0=
EXTT1=
EXTT2=
EXTT3=
EXTT4=
EXTT5=
EXTT6=
EXTT7=
EXTT8=
EXTT9=
EXTT10=
EXTT11=
EXTT12=
EXTT13=
EXTT14=
EXTT15=
EXTT16=
EXTT17=
EXTT18=
PLAYORDER=
